<?xml version="1.0" encoding="UTF-8"?>
<svg
  width="100%"
  height="100%"
  viewBox="0 0 88 88"
  xmlns="http://www.w3.org/2000/svg"
  style="fill-rule: evenodd; clip-rule: evenodd; stroke-linecap: round"
>
  <defs>
    <clipPath id="face-left">
      <path d="M6.602,64.391l0.07,-41.393l37.137,20.392l0,41.667l-37.207,-20.666Z" />
    </clipPath>
    <clipPath id="face-right">
      <path d="M81.25,22.998l-0.265,41.235l-37.176,20.823l0,-41.666l37.441,-20.392Z" />
    </clipPath>
    <clipPath id="face-top">
      <path d="M6.657,23.021l37.093,-20.578l37.1,20.589l-37.041,20.358l-37.152,-20.369Z" />
    </clipPath>

    <filter id="perlin-left" x="-10%" y="-10%" width="120%" height="120%" color-interpolation-filters="sRGB">
      <feTurbulence type="fractalNoise" baseFrequency="0.09" numOctaves="2" seed="11" stitchTiles="stitch" result="noise" />
      <feColorMatrix
        in="noise"
        type="matrix"
        values="0.33 0.33 0.33 0 0  0.33 0.33 0.33 0 0  0.33 0.33 0.33 0 0  0 0 0 1 0"
        result="gray"
      />
      <feComponentTransfer in="gray" result="threshold">
        <feFuncR type="linear" slope="900" intercept="-455" />
        <feFuncG type="linear" slope="900" intercept="-455" />
        <feFuncB type="linear" slope="900" intercept="-455" />
      </feComponentTransfer>
      <feComponentTransfer in="threshold" result="colored">
        <feFuncR type="discrete" tableValues="0.68 0.92" />
        <feFuncG type="discrete" tableValues="0.58 0.78" />
        <feFuncB type="discrete" tableValues="0 0" />
        <feFuncA type="discrete" tableValues="1 1" />
      </feComponentTransfer>
    </filter>

    <filter id="perlin-right" x="-10%" y="-10%" width="120%" height="120%" color-interpolation-filters="sRGB">
      <feTurbulence type="fractalNoise" baseFrequency="0.11" numOctaves="2" seed="27" stitchTiles="stitch" result="noise" />
      <feColorMatrix
        in="noise"
        type="matrix"
        values="0.33 0.33 0.33 0 0  0.33 0.33 0.33 0 0  0.33 0.33 0.33 0 0  0 0 0 1 0"
        result="gray"
      />
      <feComponentTransfer in="gray" result="threshold">
        <feFuncR type="linear" slope="900" intercept="-470" />
        <feFuncG type="linear" slope="900" intercept="-470" />
        <feFuncB type="linear" slope="900" intercept="-470" />
      </feComponentTransfer>
      <feComponentTransfer in="threshold" result="colored">
        <feFuncR type="discrete" tableValues="0.78 1" />
        <feFuncG type="discrete" tableValues="0.68 0.86" />
        <feFuncB type="discrete" tableValues="0 0" />
        <feFuncA type="discrete" tableValues="1 1" />
      </feComponentTransfer>
    </filter>

    <filter id="perlin-top" x="-10%" y="-10%" width="120%" height="120%" color-interpolation-filters="sRGB">
      <feTurbulence type="fractalNoise" baseFrequency="0.08" numOctaves="2" seed="43" stitchTiles="stitch" result="noise" />
      <feColorMatrix
        in="noise"
        type="matrix"
        values="0.33 0.33 0.33 0 0  0.33 0.33 0.33 0 0  0.33 0.33 0.33 0 0  0 0 0 1 0"
        result="gray"
      />
      <feComponentTransfer in="gray" result="threshold">
        <feFuncR type="linear" slope="900" intercept="-440" />
        <feFuncG type="linear" slope="900" intercept="-440" />
        <feFuncB type="linear" slope="900" intercept="-440" />
      </feComponentTransfer>
      <feComponentTransfer in="threshold" result="colored">
        <feFuncR type="discrete" tableValues="0.88 1" />
        <feFuncG type="discrete" tableValues="0.82 0.95" />
        <feFuncB type="discrete" tableValues="0.1 0.2" />
        <feFuncA type="discrete" tableValues="1 1" />
      </feComponentTransfer>
    </filter>
  </defs>

  <style>
    .lines {
      stroke: #181818;
    }
    @media (prefers-color-scheme: dark) {
      .lines {
        stroke: #f8f8f8;
      }
    }
  </style>

  <g id="Shaded">
    <path d="M6.602,64.391l0.07,-41.393l37.137,20.392l0,41.667l-37.207,-20.666Z" fill="#B89800" />
    <path d="M81.25,22.998l-0.265,41.235l-37.176,20.823l0,-41.666l37.441,-20.392Z" fill="#E6C600" />
    <path d="M6.657,23.021l37.093,-20.578l37.1,20.589l-37.041,20.358l-37.152,-20.369Z" fill="#FFEC66" />
  </g>

  <g clip-path="url(#face-left)">
    <rect x="0" y="0" width="88" height="88" filter="url(#perlin-left)" />
  </g>
  <g clip-path="url(#face-right)">
    <rect x="0" y="0" width="88" height="88" filter="url(#perlin-right)" />
  </g>
  <g clip-path="url(#face-top)">
    <rect x="0" y="0" width="88" height="88" filter="url(#perlin-top)" />
  </g>

  <path
    d="M81.25,24.388l0,38.724c0,0.908 -0.492,1.745 -1.286,2.186l-35,19.444c-0.755,0.42 -1.673,0.42 -2.428,0l-35,-19.444c-0.794,-0.441 -1.286,-1.278 -1.286,-2.186l-0,-38.724c-0,-0.908 0.492,-1.745 1.286,-2.186l35,-19.444c0.755,-0.42 1.673,-0.42 2.428,-0l35,19.444c0.793,0.441 1.286,1.278 1.286,2.186Z"
    class="lines"
    fill="none"
    stroke-width="4.17"
  />
  <path
    d="M6.657,23.143l35.879,19.932c0.755,0.42 1.673,0.42 2.428,0l35.886,-19.859"
    class="lines"
    fill="none"
    stroke-width="4.17"
    stroke-linejoin="round"
  />
  <path
    d="M43.75,84.697l0,-41.339"
    class="lines"
    fill="none"
    stroke-width="4.17"
    stroke-linejoin="round"
  />
</svg>
